<?xml version="1.0" encoding="utf-8"?>
<!-- Generator: Adobe Illustrator 24.0.1, SVG Export Plug-In . SVG Version: 6.00 Build 0)  -->
<svg version="1.1" id="Layer_1" xmlns="http://www.w3.org/2000/svg" xmlns:xlink="http://www.w3.org/1999/xlink" x="0px" y="0px"
	 viewBox="0 0 1920 988" style="enable-background:new 0 0 1920 988;" xml:space="preserve">
<style type="text/css">
	.st0{fill:url(#SVGID_1_);}
	.st1{fill:url(#SVGID_2_);}
	.st2{fill:url(#SVGID_3_);}
	.st3{fill:url(#SVGID_4_);}
</style>
<linearGradient id="SVGID_1_" gradientUnits="userSpaceOnUse" x1="0" y1="494" x2="1920" y2="494">
	<stop  offset="0" style="stop-color:#5A47D3"/>
	<stop  offset="1" style="stop-color:#A597FD"/>
</linearGradient>
<path class="st0" d="M0,988c0,0,907.2-185.6,1920,0V0H0V988z"/>
<linearGradient id="SVGID_2_" gradientUnits="userSpaceOnUse" x1="0" y1="494" x2="1920" y2="494">
	<stop  offset="0" style="stop-color:#4734C0"/>
	<stop  offset="1" style="stop-color:#5B48D4"/>
</linearGradient>
<path class="st1" d="M0,988c0,0,968-302.3,1920,0V0H0V988z"/>
<linearGradient id="SVGID_3_" gradientUnits="userSpaceOnUse" x1="721.9289" y1="386.2416" x2="1920" y2="386.2416">
	<stop  offset="0" style="stop-color:#5745D0"/>
	<stop  offset="1" style="stop-color:#4D3AC6"/>
</linearGradient>
<path class="st2" d="M862.6,0c0,0-388.3,569.2,125.4,732.8c136.1,45.9,397.5,50.5,522.9,21.4s298.7-106.8,409.1-203.3V190.1
	c0,0-26.9-131-106.4-190.1H862.6z"/>
<linearGradient id="SVGID_4_" gradientUnits="userSpaceOnUse" x1="0" y1="153.7752" x2="575.0588" y2="153.7752">
	<stop  offset="0" style="stop-color:#5745D0"/>
	<stop  offset="1" style="stop-color:#4D3AC6"/>
</linearGradient>
<path class="st3" d="M0,301.1c0,0,154.7,57,289.9-166.6c0,0,62.3-126.5,285.2-134.5H0V301.1z"/>
</svg>
